HIERARCHY
ROOT SpineBase
{
  OFFSET 0.000000 0.000000 0.000000
  CHANNELS 6 Xposition Yposition Zposition Zrotation Xrotation Yrotation
  JOINT SpineMid
  {
    OFFSET 0.000000 33.404934 0.000000
    CHANNELS 3 Zrotation Xrotation Yrotation
    JOINT SpineShoulder
    {
      OFFSET 0.167533 24.698534 -0.781642
      CHANNELS 3 Zrotation Xrotation Yrotation
      JOINT Neck
      {
        OFFSET 0.146607 8.132357 -0.584985
        CHANNELS 3 Zrotation Xrotation Yrotation
        JOINT Head
        {
          OFFSET 3.554395 9.289655 7.255980
          CHANNELS 3 Zrotation Xrotation Yrotation
          End Site
          {
            OFFSET 0 0 0
          }
        }
      }
      JOINT ShoulderLeft
      {
        OFFSET -0.868730 -5.453739 -14.775923
        CHANNELS 3 Zrotation Xrotation Yrotation
        JOINT ElbowLeft
        {
          OFFSET 0.792236 -27.304276 -7.503974
          CHANNELS 3 Zrotation Xrotation Yrotation
          JOINT WristLeft
          {
            OFFSET 5.036332 -24.856124 -0.480940
            CHANNELS 3 Zrotation Xrotation Yrotation
            JOINT HandLeft
            {
              OFFSET -0.975034 -6.152031 2.704455
              CHANNELS 3 Zrotation Xrotation Yrotation
              JOINT HandTipLeft
              {
                OFFSET 1.813664 -7.082874 1.922928
                CHANNELS 3 Zrotation Xrotation Yrotation
                End Site
                {
                  OFFSET 0 0 0
                }
              }
              JOINT ThumbLeft
              {
                OFFSET 4.141324 2.513536 4.414314
                CHANNELS 3 Zrotation Xrotation Yrotation
                End Site
                {
                  OFFSET 0 0 0
                }
              }
            }
          }
        }
      }
      JOINT ShoulderRight
      {
        OFFSET 9.873435 -6.778285 22.835631
        CHANNELS 3 Zrotation Xrotation Yrotation
        JOINT ElbowRight
        {
          OFFSET -4.295902 -12.184898 -26.399271
          CHANNELS 3 Zrotation Xrotation Yrotation
          JOINT WristRight
          {
            OFFSET -6.363309 -21.402573 -17.679871
            CHANNELS 3 Zrotation Xrotation Yrotation
            JOINT HandRight
            {
              OFFSET -1.941260 -15.296891 2.306877
              CHANNELS 3 Zrotation Xrotation Yrotation
              JOINT HandTipRight
              {
                OFFSET -0.813591 -2.902756 -1.070034
                CHANNELS 3 Zrotation Xrotation Yrotation
                End Site
                {
                  OFFSET 0 0 0
                }
              }
              JOINT ThumbRight
              {
                OFFSET -3.618516 2.171656 -1.220650
                CHANNELS 3 Zrotation Xrotation Yrotation
                End Site
                {
                  OFFSET 0 0 0
                }
              }
            }
          }
        }
      }
    }
  }
  JOINT HipLeft
  {
    OFFSET -1.143098 1.108359 -7.273051
    CHANNELS 3 Zrotation Xrotation Yrotation
    JOINT KneeLeft
    {
      OFFSET -1.899179 -36.599348 -6.780280
      CHANNELS 3 Zrotation Xrotation Yrotation
      JOINT AnkleLeft
      {
        OFFSET -8.438874 -37.727980 -1.051907
        CHANNELS 3 Zrotation Xrotation Yrotation
        JOINT FootLeft
        {
          OFFSET 10.569093 -3.533460 -6.297816
          CHANNELS 3 Zrotation Xrotation Yrotation
          End Site
          {
            OFFSET 0 0 0
          }
        }
      }
    }
  }
  JOINT HipRight
  {
    OFFSET 2.532698 0.721323 -0.174141
    CHANNELS 3 Zrotation Xrotation Yrotation
    JOINT KneeRight
    {
      OFFSET 0.413992 -42.441995 -13.767809
      CHANNELS 3 Zrotation Xrotation Yrotation
      JOINT AnkleRight
      {
        OFFSET -12.551151 -35.555690 10.722163
        CHANNELS 3 Zrotation Xrotation Yrotation
        JOINT FootRight
        {
          OFFSET -1.302923 0.086524 -15.692148
          CHANNELS 3 Zrotation Xrotation Yrotation
          End Site
          {
            OFFSET 0 0 0
          }
        }
      }
    }
  }
}
MOTION
Frames: 6
Frame Time: 0.033333
-59.111590 81.304981 325.417009 -0.000000 0.000000 -62.625003 -0.000000 0.000000 62.625003 -0.000000 0.000000 0.000000 -0.000000 0.000000 0.000000 0.000000 0.000000 0.000000 -0.000000 0.000000 0.000000 -0.000000 0.000000 0.000000 -0.000000 0.000000 0.000000 -0.000000 0.000000 0.000000 0.000000 0.000000 0.000000 0.000000 0.000000 0.000000 -0.000000 0.000000 0.000000 -0.000000 0.000000 0.000000 -0.000000 0.000000 0.000000 -0.000000 0.000000 0.000000 0.000000 0.000000 0.000000 0.000000 0.000000 0.000000 -0.000000 0.000000 62.625003 -0.000000 0.000000 0.000000 -0.000000 0.000000 0.000000 0.000000 0.000000 0.000000 -0.000000 0.000000 62.625003 -0.000000 0.000000 0.000000 -0.000000 0.000000 0.000000 0.000000 0.000000 0.000000
-58.983267 81.338939 325.395321 0.038154 0.033158 -62.346998 0.011663 -0.049185 62.346992 -0.000000 0.000000 0.000000 4.016280 -1.674193 -2.500699 0.000000 0.000000 0.000000 -0.000000 0.000000 0.000000 -0.000000 0.000000 0.000000 -0.000000 0.000000 0.000000 -0.000000 0.000000 0.000000 0.000000 0.000000 0.000000 0.000000 0.000000 0.000000 -0.000000 0.000000 0.000000 -0.000000 0.000000 0.000000 -0.000000 0.000000 0.000000 0.541064 -3.145701 0.705375 0.000000 0.000000 0.000000 0.000000 0.000000 0.000000 0.011663 -0.049185 62.346992 -0.000000 0.000000 0.000000 -0.000000 0.000000 0.000000 0.000000 0.000000 0.000000 0.011663 -0.049185 62.346992 -0.000000 0.000000 0.000000 -0.070680 0.853172 -0.082207 0.000000 0.000000 0.000000
-58.884906 81.372618 325.373953 0.050684 0.065645 -62.155642 0.034371 -0.075477 62.155636 -0.000000 0.000000 0.000000 7.212363 -3.133983 -4.443899 0.000000 0.000000 0.000000 -0.000000 0.000000 0.000000 -0.000000 0.000000 0.000000 -0.000000 0.000000 0.000000 -0.857590 0.876097 -0.001941 0.000000 0.000000 0.000000 0.000000 0.000000 0.000000 -0.000000 0.000000 0.000000 -0.000000 0.000000 0.000000 -0.000000 0.000000 0.000000 0.951721 -5.578925 1.286494 0.000000 0.000000 0.000000 0.000000 0.000000 0.000000 0.034371 -0.075477 62.155636 -0.000000 0.000000 0.000000 -0.000000 0.000000 0.000000 0.000000 0.000000 0.000000 0.034371 -0.075477 62.155636 -0.000000 0.000000 0.000000 -0.108561 1.327424 -0.271086 0.000000 0.000000 0.000000
-58.816508 81.406017 325.352904 0.037417 0.097412 -62.060611 0.068527 -0.078697 62.060627 -0.000000 0.000000 0.000000 9.456608 -4.210816 -5.787615 0.000000 0.000000 0.000000 -0.000000 0.000000 0.000000 -0.000000 0.000000 0.000000 0.476460 0.883167 0.066074 -1.643280 0.418666 -0.062215 0.000000 0.000000 0.000000 0.000000 0.000000 0.000000 -0.000000 0.000000 0.000000 -0.000000 0.000000 0.000000 -0.000000 0.000000 0.000000 1.205707 -7.280157 1.720786 0.000000 0.000000 0.000000 0.000000 0.000000 0.000000 0.068527 -0.078697 62.060627 -0.000000 0.000000 0.000000 -0.000000 0.000000 0.000000 0.000000 0.000000 0.000000 0.068527 -0.078697 62.060627 -0.000000 0.000000 0.000000 -0.113818 1.418277 -0.569426 0.000000 0.000000 0.000000
-58.778071 81.439138 325.332175 -0.001756 0.128416 -62.068387 0.114279 -0.058601 62.068448 -0.000000 0.000000 0.000000 10.675473 -4.784541 -6.523095 0.000000 0.000000 0.000000 -0.000000 0.000000 0.000000 -0.000000 0.000000 0.000000 0.504418 0.983020 0.061892 -1.902226 0.733097 -0.014127 0.000000 0.000000 0.000000 0.000000 0.000000 0.000000 -0.000000 0.000000 0.000000 -0.000000 0.000000 0.000000 -0.000000 0.000000 0.000000 1.280223 -8.231056 1.989991 0.000000 0.000000 0.000000 0.000000 0.000000 0.000000 0.114279 -0.058601 62.068448 -0.000000 0.000000 0.000000 -0.000000 0.000000 0.000000 0.000000 0.000000 0.000000 0.114279 -0.058601 62.068448 -0.000000 0.000000 0.000000 -0.088703 1.119185 -0.979882 0.000000 0.000000 0.000000
-58.769597 81.471979 325.311766 -0.066871 0.158611 -62.181622 0.171487 -0.014876 62.181737 -0.000000 0.000000 0.000000 10.829200 -4.787111 -6.648260 0.000000 0.000000 0.000000 -0.000000 0.000000 0.000000 -0.000000 0.000000 0.000000 0.465345 0.982719 0.045022 -2.016268 1.137666 0.071232 0.000000 0.000000 0.000000 0.000000 0.000000 0.000000 -0.000000 0.000000 0.000000 -0.000000 0.000000 0.000000 -0.000000 0.000000 0.000000 1.156058 -8.403871 2.080464 0.000000 0.000000 0.000000 0.000000 0.000000 0.000000 0.171487 -0.014876 62.181737 -0.000000 0.000000 0.000000 -0.000000 0.000000 0.000000 0.000000 0.000000 0.000000 0.171487 -0.014876 62.181737 -0.000000 0.000000 0.000000 -0.037712 0.421399 -1.504938 0.000000 0.000000 0.000000
